<svg width="176" height="176" viewBox="0 0 176 176" fill="none" xmlns="http://www.w3.org/2000/svg">
<path d="M129.854 0C131.039 0 132 0.96095 132 2.14634V41.8537C132 43.0391 132.961 44 134.146 44H173.854C175.039 44 176 44.961 176 46.1463V88C176 136.601 136.601 176 88 176C39.3989 176 0 136.601 0 88C0 39.3989 39.3989 0 88 0H129.854Z" fill="#DAFBF0"/>
<path d="M81.5609 94.4391L132.537 43.4634V91.2195C132.537 114.038 114.038 132.537 91.2195 132.537H43.4634L81.5609 94.4391Z" fill="#59ECBB"/>
<path d="M43.4634 84.7805C43.4634 61.9617 61.9617 43.4634 84.7805 43.4634H132.537L81.5609 94.4391L43.4634 132.537V84.7805Z" fill="#19E5A1"/>
<path d="M81.561 43.4634H132.537V94.439H81.561V43.4634Z" fill="#91F3D2"/>
</svg>
