<svg xmlns="http://www.w3.org/2000/svg" width="24" height="24" viewBox="0 0 24 24" fill="none" stroke="currentColor" stroke-width="2" stroke-linecap="round" stroke-linejoin="round" class="lucide lucide-flower2 w-16 h-16 text-bloom-teal dark:text-bloom-green" data-lov-id="src/pages/Index.tsx:94:16" data-lov-name="Flower2" data-component-path="src/pages/Index.tsx" data-component-line="94" data-component-file="Index.tsx" data-component-name="Flower2" data-component-content="%7B%22className%22%3A%22w-16%20h-16%20text-bloom-teal%20dark%3Atext-bloom-green%22%7D"><path d="M12 5a3 3 0 1 1 3 3m-3-3a3 3 0 1 0-3 3m3-3v1M9 8a3 3 0 1 0 3 3M9 8h1m5 0a3 3 0 1 1-3 3m3-3h-1m-2 3v-1"></path><circle cx="12" cy="8" r="2"></circle><path d="M12 10v12"></path><path d="M12 22c4.2 0 7-1.667 7-5-4.2 0-7 1.667-7 5Z"></path><path d="M12 22c-4.2 0-7-1.667-7-5 4.2 0 7 1.667 7 5Z"></path></svg>